<?xml version="1.0" encoding="UTF-8"?>
<svg width="16px" height="16px" viewBox="0 0 16 16" version="1.1" xmlns="http://www.w3.org/2000/svg" xmlns:xlink="http://www.w3.org/1999/xlink">
    <!-- Generator: Sketch 60 (88103) - https://sketch.com -->
    <title>首页</title>
    <desc>Created with Sketch.</desc>
    <g id="页面-1" stroke="none" stroke-width="1" fill="none" fill-rule="evenodd" opacity="0.65">
        <g id="政企通" transform="translate(-24.000000, -228.000000)" fill="#FFFFFF" fill-rule="nonzero">
            <g id="switch-bar-展开">
                <g id="首页" transform="translate(0.000000, 204.000000)">
                    <g id="Group-8" transform="translate(24.000000, 24.000000)">
                        <g id="首页">
                            <path d="M2.41827121,9.9356781 L2.41827121,14.8030267 C2.41827121,15.4640831 2.95414098,16 3.61520246,16 L12.3869471,16 C13.0480086,16 13.5838783,15.4640831 13.5838783,14.8030267 L13.5838783,9.93569568 L14.7623008,9.93620555 L14.7631758,9.93620562 C15.4242354,9.93620562 15.9601146,9.40029057 15.9601146,8.73923227 C15.9604763,8.43536896 15.8444881,8.14223187 15.6361722,7.92037019 L8.86984238,0.396534917 L8.86978612,0.396472359 C8.64278284,0.144115029 8.31931455,0 7.97988257,0 C7.64045059,0 7.3169823,0.144115029 7.08997902,0.396472359 L0.306997271,7.93881998 C-0.00909531607,8.29027554 -0.0887359567,8.79487812 0.103751792,9.22662724 C0.296096033,9.65819625 0.724442951,9.93624254 1.19702163,9.93620562 L1.19717068,9.93620562 L2.41827121,9.9356781 Z M7.97988252,1.55505207 L14.2252158,8.49956411 L12.8659846,8.49897596 L12.1474694,8.49866508 L12.1474694,14.563591 L3.85468018,14.563591 L3.85468018,8.49864844 L1.73454582,8.49956441 L7.97988252,1.55505207 Z" id="路径"></path>
                        </g>
                    </g>
                </g>
            </g>
        </g>
    </g>
</svg>